<?xml version="1.0" standalone="no"?>
<!DOCTYPE svg PUBLIC "-//W3C//DTD SVG 1.1//EN" "http://www.w3.org/Graphics/SVG/1.1/DTD/svg11.dtd">
<svg version="1.1" width="1200" height="214" onload="init(evt)" viewBox="0 0 1200 214" xmlns="http://www.w3.org/2000/svg" xmlns:xlink="http://www.w3.org/1999/xlink">
<!-- Flame graph stack visualization. See https://github.com/brendangregg/FlameGraph for latest version, and http://www.brendangregg.com/flamegraphs.html for examples. -->
<!-- NOTES:  -->
<defs>
	<linearGradient id="background" y1="0" y2="1" x1="0" x2="0" >
		<stop stop-color="#eeeeee" offset="5%" />
		<stop stop-color="#eeeeb0" offset="95%" />
	</linearGradient>
</defs>
<style type="text/css">
	text { font-family:Verdana; font-size:12px; fill:rgb(0,0,0); }
	#search, #ignorecase { opacity:0.1; cursor:pointer; }
	#search:hover, #search.show, #ignorecase:hover, #ignorecase.show { opacity:1; }
	#subtitle { text-anchor:middle; font-color:rgb(160,160,160); }
	#title { text-anchor:middle; font-size:17px}
	#unzoom { cursor:pointer; }
	#frames > *:hover { stroke:black; stroke-width:0.5; cursor:pointer; }
	.hide { display:none; }
	.parent { opacity:0.5; }
</style>
<script type="text/ecmascript">
<![CDATA[
	"use strict";
	var details, searchbtn, unzoombtn, matchedtxt, svg, searching, currentSearchTerm, ignorecase, ignorecaseBtn;
	function init(evt) {
		details = document.getElementById("details").firstChild;
		searchbtn = document.getElementById("search");
		ignorecaseBtn = document.getElementById("ignorecase");
		unzoombtn = document.getElementById("unzoom");
		matchedtxt = document.getElementById("matched");
		svg = document.getElementsByTagName("svg")[0];
		searching = 0;
		currentSearchTerm = null;

		// use GET parameters to restore a flamegraphs state.
		var params = get_params();
		if (params.x && params.y)
			zoom(find_group(document.querySelector('[x="' + params.x + '"][y="' + params.y + '"]')));
                if (params.s) search(params.s);
	}

	// event listeners
	window.addEventListener("click", function(e) {
		var target = find_group(e.target);
		if (target) {
			if (target.nodeName == "a") {
				if (e.ctrlKey === false) return;
				e.preventDefault();
			}
			if (target.classList.contains("parent")) unzoom(true);
			zoom(target);
			if (!document.querySelector('.parent')) {
				// we have basically done a clearzoom so clear the url
				var params = get_params();
				if (params.x) delete params.x;
				if (params.y) delete params.y;
				history.replaceState(null, null, parse_params(params));
				unzoombtn.classList.add("hide");
				return;
			}

			// set parameters for zoom state
			var el = target.querySelector("rect");
			if (el && el.attributes && el.attributes.y && el.attributes._orig_x) {
				var params = get_params()
				params.x = el.attributes._orig_x.value;
				params.y = el.attributes.y.value;
				history.replaceState(null, null, parse_params(params));
			}
		}
		else if (e.target.id == "unzoom") clearzoom();
		else if (e.target.id == "search") search_prompt();
		else if (e.target.id == "ignorecase") toggle_ignorecase();
	}, false)

	// mouse-over for info
	// show
	window.addEventListener("mouseover", function(e) {
		var target = find_group(e.target);
		if (target) details.nodeValue = "Function: " + g_to_text(target);
	}, false)

	// clear
	window.addEventListener("mouseout", function(e) {
		var target = find_group(e.target);
		if (target) details.nodeValue = ' ';
	}, false)

	// ctrl-F for search
	// ctrl-I to toggle case-sensitive search
	window.addEventListener("keydown",function (e) {
		if (e.keyCode === 114 || (e.ctrlKey && e.keyCode === 70)) {
			e.preventDefault();
			search_prompt();
		}
		else if (e.ctrlKey && e.keyCode === 73) {
			e.preventDefault();
			toggle_ignorecase();
		}
	}, false)

	// functions
	function get_params() {
		var params = {};
		var paramsarr = window.location.search.substr(1).split('&');
		for (var i = 0; i < paramsarr.length; ++i) {
			var tmp = paramsarr[i].split("=");
			if (!tmp[0] || !tmp[1]) continue;
			params[tmp[0]]  = decodeURIComponent(tmp[1]);
		}
		return params;
	}
	function parse_params(params) {
		var uri = "?";
		for (var key in params) {
			uri += key + '=' + encodeURIComponent(params[key]) + '&';
		}
		if (uri.slice(-1) == "&")
			uri = uri.substring(0, uri.length - 1);
		if (uri == '?')
			uri = window.location.href.split('?')[0];
		return uri;
	}
	function find_child(node, selector) {
		var children = node.querySelectorAll(selector);
		if (children.length) return children[0];
	}
	function find_group(node) {
		var parent = node.parentElement;
		if (!parent) return;
		if (parent.id == "frames") return node;
		return find_group(parent);
	}
	function orig_save(e, attr, val) {
		if (e.attributes["_orig_" + attr] != undefined) return;
		if (e.attributes[attr] == undefined) return;
		if (val == undefined) val = e.attributes[attr].value;
		e.setAttribute("_orig_" + attr, val);
	}
	function orig_load(e, attr) {
		if (e.attributes["_orig_"+attr] == undefined) return;
		e.attributes[attr].value = e.attributes["_orig_" + attr].value;
		e.removeAttribute("_orig_"+attr);
	}
	function g_to_text(e) {
		var text = find_child(e, "title").firstChild.nodeValue;
		return (text)
	}
	function g_to_func(e) {
		var func = g_to_text(e);
		// if there's any manipulation we want to do to the function
		// name before it's searched, do it here before returning.
		return (func);
	}
	function update_text(e) {
		var r = find_child(e, "rect");
		var t = find_child(e, "text");
		var w = parseFloat(r.attributes.width.value) -3;
		var txt = find_child(e, "title").textContent.replace(/\([^(]*\)$/,"");
		t.attributes.x.value = parseFloat(r.attributes.x.value) + 3;

		// Smaller than this size won't fit anything
		if (w < 2 * 12 * 0.59) {
			t.textContent = "";
			return;
		}

		t.textContent = txt;
		var sl = t.getSubStringLength(0, txt.length);
		// check if only whitespace or if we can fit the entire string into width w
		if (/^ *$/.test(txt) || sl < w)
			return;

		// this isn't perfect, but gives a good starting point
		// and avoids calling getSubStringLength too often
		var start = Math.floor((w/sl) * txt.length);
		for (var x = start; x > 0; x = x-2) {
			if (t.getSubStringLength(0, x + 2) <= w) {
				t.textContent = txt.substring(0, x) + "..";
				return;
			}
		}
		t.textContent = "";
	}

	// zoom
	function zoom_reset(e) {
		if (e.attributes != undefined) {
			orig_load(e, "x");
			orig_load(e, "width");
		}
		if (e.childNodes == undefined) return;
		for (var i = 0, c = e.childNodes; i < c.length; i++) {
			zoom_reset(c[i]);
		}
	}
	function zoom_child(e, x, ratio) {
		if (e.attributes != undefined) {
			if (e.attributes.x != undefined) {
				orig_save(e, "x");
				e.attributes.x.value = (parseFloat(e.attributes.x.value) - x - 10) * ratio + 10;
				if (e.tagName == "text")
					e.attributes.x.value = find_child(e.parentNode, "rect[x]").attributes.x.value + 3;
			}
			if (e.attributes.width != undefined) {
				orig_save(e, "width");
				e.attributes.width.value = parseFloat(e.attributes.width.value) * ratio;
			}
		}

		if (e.childNodes == undefined) return;
		for (var i = 0, c = e.childNodes; i < c.length; i++) {
			zoom_child(c[i], x - 10, ratio);
		}
	}
	function zoom_parent(e) {
		if (e.attributes) {
			if (e.attributes.x != undefined) {
				orig_save(e, "x");
				e.attributes.x.value = 10;
			}
			if (e.attributes.width != undefined) {
				orig_save(e, "width");
				e.attributes.width.value = parseInt(svg.width.baseVal.value) - (10 * 2);
			}
		}
		if (e.childNodes == undefined) return;
		for (var i = 0, c = e.childNodes; i < c.length; i++) {
			zoom_parent(c[i]);
		}
	}
	function zoom(node) {
		var attr = find_child(node, "rect").attributes;
		var width = parseFloat(attr.width.value);
		var xmin = parseFloat(attr.x.value);
		var xmax = parseFloat(xmin + width);
		var ymin = parseFloat(attr.y.value);
		var ratio = (svg.width.baseVal.value - 2 * 10) / width;

		// XXX: Workaround for JavaScript float issues (fix me)
		var fudge = 0.0001;

		unzoombtn.classList.remove("hide");

		var el = document.getElementById("frames").children;
		for (var i = 0; i < el.length; i++) {
			var e = el[i];
			var a = find_child(e, "rect").attributes;
			var ex = parseFloat(a.x.value);
			var ew = parseFloat(a.width.value);
			var upstack;
			// Is it an ancestor
			if (0 == 0) {
				upstack = parseFloat(a.y.value) > ymin;
			} else {
				upstack = parseFloat(a.y.value) < ymin;
			}
			if (upstack) {
				// Direct ancestor
				if (ex <= xmin && (ex+ew+fudge) >= xmax) {
					e.classList.add("parent");
					zoom_parent(e);
					update_text(e);
				}
				// not in current path
				else
					e.classList.add("hide");
			}
			// Children maybe
			else {
				// no common path
				if (ex < xmin || ex + fudge >= xmax) {
					e.classList.add("hide");
				}
				else {
					zoom_child(e, xmin, ratio);
					update_text(e);
				}
			}
		}
		search();
	}
	function unzoom(dont_update_text) {
		unzoombtn.classList.add("hide");
		var el = document.getElementById("frames").children;
		for(var i = 0; i < el.length; i++) {
			el[i].classList.remove("parent");
			el[i].classList.remove("hide");
			zoom_reset(el[i]);
			if(!dont_update_text) update_text(el[i]);
		}
		search();
	}
	function clearzoom() {
		unzoom();

		// remove zoom state
		var params = get_params();
		if (params.x) delete params.x;
		if (params.y) delete params.y;
		history.replaceState(null, null, parse_params(params));
	}

	// search
	function toggle_ignorecase() {
		ignorecase = !ignorecase;
		if (ignorecase) {
			ignorecaseBtn.classList.add("show");
		} else {
			ignorecaseBtn.classList.remove("show");
		}
		reset_search();
		search();
	}
	function reset_search() {
		var el = document.querySelectorAll("#frames rect");
		for (var i = 0; i < el.length; i++) {
			orig_load(el[i], "fill")
		}
		var params = get_params();
		delete params.s;
		history.replaceState(null, null, parse_params(params));
	}
	function search_prompt() {
		if (!searching) {
			var term = prompt("Enter a search term (regexp " +
			    "allowed, eg: ^ext4_)"
			    + (ignorecase ? ", ignoring case" : "")
			    + "\nPress Ctrl-i to toggle case sensitivity", "");
			if (term != null) search(term);
		} else {
			reset_search();
			searching = 0;
			currentSearchTerm = null;
			searchbtn.classList.remove("show");
			searchbtn.firstChild.nodeValue = "Search"
			matchedtxt.classList.add("hide");
			matchedtxt.firstChild.nodeValue = ""
		}
	}
	function search(term) {
		if (term) currentSearchTerm = term;
		if (currentSearchTerm === null) return;

		var re = new RegExp(currentSearchTerm, ignorecase ? 'i' : '');
		var el = document.getElementById("frames").children;
		var matches = new Object();
		var maxwidth = 0;
		for (var i = 0; i < el.length; i++) {
			var e = el[i];
			var func = g_to_func(e);
			var rect = find_child(e, "rect");
			if (func == null || rect == null)
				continue;

			// Save max width. Only works as we have a root frame
			var w = parseFloat(rect.attributes.width.value);
			if (w > maxwidth)
				maxwidth = w;

			if (func.match(re)) {
				// highlight
				var x = parseFloat(rect.attributes.x.value);
				orig_save(rect, "fill");
				rect.attributes.fill.value = "rgb(230,0,230)";

				// remember matches
				if (matches[x] == undefined) {
					matches[x] = w;
				} else {
					if (w > matches[x]) {
						// overwrite with parent
						matches[x] = w;
					}
				}
				searching = 1;
			}
		}
		if (!searching)
			return;
		var params = get_params();
		params.s = currentSearchTerm;
		history.replaceState(null, null, parse_params(params));

		searchbtn.classList.add("show");
		searchbtn.firstChild.nodeValue = "Reset Search";

		// calculate percent matched, excluding vertical overlap
		var count = 0;
		var lastx = -1;
		var lastw = 0;
		var keys = Array();
		for (k in matches) {
			if (matches.hasOwnProperty(k))
				keys.push(k);
		}
		// sort the matched frames by their x location
		// ascending, then width descending
		keys.sort(function(a, b){
			return a - b;
		});
		// Step through frames saving only the biggest bottom-up frames
		// thanks to the sort order. This relies on the tree property
		// where children are always smaller than their parents.
		var fudge = 0.0001;	// JavaScript floating point
		for (var k in keys) {
			var x = parseFloat(keys[k]);
			var w = matches[keys[k]];
			if (x >= lastx + lastw - fudge) {
				count += w;
				lastx = x;
				lastw = w;
			}
		}
		// display matched percent
		matchedtxt.classList.remove("hide");
		var pct = 100 * count / maxwidth;
		if (pct != 100) pct = pct.toFixed(1)
		matchedtxt.firstChild.nodeValue = "Matched: " + pct + "%";
	}
]]>
</script>
<rect x="0.0" y="0" width="1200.0" height="214.0" fill="url(#background)"  />
<text id="title" x="600.00" y="24" >pyflate baseline: Python frames below bench_pyflake (py-spy)</text>
<text id="details" x="10.00" y="197" > </text>
<text id="unzoom" x="10.00" y="24" class="hide">Reset Zoom</text>
<text id="search" x="1090.00" y="24" >Search</text>
<text id="ignorecase" x="1174.00" y="24" >ic</text>
<text id="matched" x="1090.00" y="197" > </text>
<g id="frames">
<g >
<title>decode_huffman_block (run_benchmark.py:442) (1,468 samples, 16.84%)</title><rect x="630.8" y="117" width="198.8" height="15.0" fill="rgb(83,196,196)" rx="2" ry="2" />
<text  x="633.80" y="127.5" >decode_huffman_block (run_..</text>
</g>
<g >
<title>decode_huffman_block (run_benchmark.py:420) (3 samples, 0.03%)</title><rect x="39.7" y="117" width="0.4" height="15.0" fill="rgb(54,169,169)" rx="2" ry="2" />
<text  x="42.65" y="127.5" ></text>
</g>
<g >
<title>__init__ (run_benchmark.py:185) (2 samples, 0.02%)</title><rect x="25.3" y="69" width="0.3" height="15.0" fill="rgb(82,195,195)" rx="2" ry="2" />
<text  x="28.30" y="79.5" ></text>
</g>
<g >
<title>decode_huffman_block (run_benchmark.py:430) (19 samples, 0.22%)</title><rect x="604.1" y="117" width="2.6" height="15.0" fill="rgb(107,217,217)" rx="2" ry="2" />
<text  x="607.13" y="127.5" ></text>
</g>
<g >
<title>decode_huffman_block (run_benchmark.py:454) (325 samples, 3.73%)</title><rect x="1126.5" y="117" width="44.0" height="15.0" fill="rgb(60,174,174)" rx="2" ry="2" />
<text  x="1129.50" y="127.5" >deco..</text>
</g>
<g >
<title>reverse_bits (run_benchmark.py:158) (10 samples, 0.11%)</title><rect x="26.7" y="69" width="1.3" height="15.0" fill="rgb(105,215,215)" rx="2" ry="2" />
<text  x="29.65" y="79.5" ></text>
</g>
<g >
<title>bzip2_main (run_benchmark.py:485) (75 samples, 0.86%)</title><rect x="1179.8" y="133" width="10.2" height="15.0" fill="rgb(109,219,219)" rx="2" ry="2" />
<text  x="1182.85" y="143.5" ></text>
</g>
<g >
<title>find_next_symbol (run_benchmark.py:230) (56 samples, 0.64%)</title><rect x="375.3" y="101" width="7.6" height="15.0" fill="rgb(75,188,188)" rx="2" ry="2" />
<text  x="378.31" y="111.5" ></text>
</g>
<g >
<title>find_next_symbol (run_benchmark.py:225) (15 samples, 0.17%)</title><rect x="57.4" y="101" width="2.0" height="15.0" fill="rgb(104,215,215)" rx="2" ry="2" />
<text  x="60.39" y="111.5" ></text>
</g>
<g >
<title>compute_tables (run_benchmark.py:388) (21 samples, 0.24%)</title><rect x="26.1" y="101" width="2.9" height="15.0" fill="rgb(60,174,174)" rx="2" ry="2" />
<text  x="29.11" y="111.5" ></text>
</g>
<g >
<title>decode_huffman_block (run_benchmark.py:405) (78 samples, 0.90%)</title><rect x="12.8" y="117" width="10.6" height="15.0" fill="rgb(91,203,203)" rx="2" ry="2" />
<text  x="15.84" y="127.5" ></text>
</g>
<g >
<title>readbits (run_benchmark.py:122) (19 samples, 0.22%)</title><rect x="19.1" y="85" width="2.5" height="15.0" fill="rgb(100,210,210)" rx="2" ry="2" />
<text  x="22.07" y="95.5" ></text>
</g>
<g >
<title>_mask (run_benchmark.py:55) (1 samples, 0.01%)</title><rect x="18.1" y="69" width="0.2" height="15.0" fill="rgb(57,171,171)" rx="2" ry="2" />
<text  x="21.12" y="79.5" ></text>
</g>
<g >
<title>decode_huffman_block (run_benchmark.py:428) (4 samples, 0.05%)</title><rect x="597.9" y="117" width="0.5" height="15.0" fill="rgb(52,167,167)" rx="2" ry="2" />
<text  x="600.90" y="127.5" ></text>
</g>
<g >
<title>_more (run_benchmark.py:109) (1 samples, 0.01%)</title><rect x="16.0" y="53" width="0.1" height="15.0" fill="rgb(50,165,165)" rx="2" ry="2" />
<text  x="18.96" y="63.5" ></text>
</g>
<g >
<title>decode_huffman_block (run_benchmark.py:441) (39 samples, 0.45%)</title><rect x="625.5" y="117" width="5.3" height="15.0" fill="rgb(91,203,203)" rx="2" ry="2" />
<text  x="628.52" y="127.5" ></text>
</g>
<g >
<title>move_to_front (run_benchmark.py:289) (10 samples, 0.11%)</title><rect x="22.1" y="85" width="1.3" height="15.0" fill="rgb(67,180,180)" rx="2" ry="2" />
<text  x="25.05" y="95.5" ></text>
</g>
<g >
<title>compute_tables (run_benchmark.py:382) (1 samples, 0.01%)</title><rect x="25.2" y="101" width="0.1" height="15.0" fill="rgb(107,217,217)" rx="2" ry="2" />
<text  x="28.16" y="111.5" ></text>
</g>
<g >
<title>compute_selectors_list (run_benchmark.py:359) (3 samples, 0.03%)</title><rect x="12.8" y="101" width="0.4" height="15.0" fill="rgb(63,177,177)" rx="2" ry="2" />
<text  x="15.84" y="111.5" ></text>
</g>
<g >
<title>readbits (run_benchmark.py:118) (66 samples, 0.76%)</title><rect x="446.4" y="85" width="8.9" height="15.0" fill="rgb(61,175,175)" rx="2" ry="2" />
<text  x="449.39" y="95.5" ></text>
</g>
<g >
<title>__init__ (run_benchmark.py:189) (4 samples, 0.05%)</title><rect x="25.6" y="69" width="0.5" height="15.0" fill="rgb(51,166,166)" rx="2" ry="2" />
<text  x="28.57" y="79.5" ></text>
</g>
<g >
<title>readbits (run_benchmark.py:123) (5 samples, 0.06%)</title><rect x="569.5" y="85" width="0.6" height="15.0" fill="rgb(92,203,203)" rx="2" ry="2" />
<text  x="572.47" y="95.5" ></text>
</g>
<g >
<title>populate_huffman_symbols (run_benchmark.py:200) (21 samples, 0.24%)</title><rect x="26.1" y="85" width="2.9" height="15.0" fill="rgb(106,216,216)" rx="2" ry="2" />
<text  x="29.11" y="95.5" ></text>
</g>
<g >
<title>decode_huffman_block (run_benchmark.py:425) (4,012 samples, 46.04%)</title><rect x="40.2" y="117" width="543.2" height="15.0" fill="rgb(76,189,189)" rx="2" ry="2" />
<text  x="43.19" y="127.5" >decode_huffman_block (run_benchmark.py:425)</text>
</g>
<g >
<title>__init__ (run_benchmark.py:251) (6 samples, 0.07%)</title><rect x="25.3" y="85" width="0.8" height="15.0" fill="rgb(69,182,182)" rx="2" ry="2" />
<text  x="28.30" y="95.5" ></text>
</g>
<g >
<title>bzip2_main (run_benchmark.py:476) (3 samples, 0.03%)</title><rect x="10.5" y="133" width="0.4" height="15.0" fill="rgb(109,219,219)" rx="2" ry="2" />
<text  x="13.54" y="143.5" ></text>
</g>
<g >
<title>all (8,715 samples, 100%)</title><rect x="10.0" y="165" width="1180.0" height="15.0" fill="rgb(209,63,63)" rx="2" ry="2" />
<text  x="13.00" y="175.5" ></text>
</g>
<g >
<title>decode_huffman_block (run_benchmark.py:443) (57 samples, 0.65%)</title><rect x="829.6" y="117" width="7.7" height="15.0" fill="rgb(76,189,189)" rx="2" ry="2" />
<text  x="832.57" y="127.5" ></text>
</g>
<g >
<title>decode_huffman_block (run_benchmark.py:444) (4 samples, 0.05%)</title><rect x="837.3" y="117" width="0.5" height="15.0" fill="rgb(68,181,181)" rx="2" ry="2" />
<text  x="840.29" y="127.5" ></text>
</g>
<g >
<title>compute_tables (run_benchmark.py:389) (2 samples, 0.02%)</title><rect x="29.0" y="101" width="0.2" height="15.0" fill="rgb(52,167,167)" rx="2" ry="2" />
<text  x="31.96" y="111.5" ></text>
</g>
<g >
<title>readbits (run_benchmark.py:119) (3 samples, 0.03%)</title><rect x="10.5" y="117" width="0.4" height="15.0" fill="rgb(53,168,168)" rx="2" ry="2" />
<text  x="13.54" y="127.5" ></text>
</g>
<g >
<title>reverse_bits (run_benchmark.py:157) (4 samples, 0.05%)</title><rect x="26.1" y="69" width="0.6" height="15.0" fill="rgb(52,167,167)" rx="2" ry="2" />
<text  x="29.11" y="79.5" ></text>
</g>
<g >
<title>_mask (run_benchmark.py:55) (262 samples, 3.01%)</title><rect x="339.8" y="69" width="35.5" height="15.0" fill="rgb(57,171,171)" rx="2" ry="2" />
<text  x="342.83" y="79.5" >_ma..</text>
</g>
<g >
<title>_read (run_benchmark.py:48) (1 samples, 0.01%)</title><rect x="229.6" y="37" width="0.2" height="15.0" fill="rgb(105,216,216)" rx="2" ry="2" />
<text  x="232.62" y="47.5" ></text>
</g>
<g >
<title>find_next_symbol (run_benchmark.py:231) (354 samples, 4.06%)</title><rect x="382.9" y="101" width="47.9" height="15.0" fill="rgb(68,181,181)" rx="2" ry="2" />
<text  x="385.89" y="111.5" >find..</text>
</g>
<g >
<title>snoopbits (run_benchmark.py:114) (489 samples, 5.61%)</title><rect x="182.6" y="85" width="66.2" height="15.0" fill="rgb(92,204,204)" rx="2" ry="2" />
<text  x="185.63" y="95.5" >snoopbi..</text>
</g>
<g >
<title>decode_huffman_block (run_benchmark.py:451) (22 samples, 0.25%)</title><rect x="1123.1" y="117" width="3.0" height="15.0" fill="rgb(83,196,196)" rx="2" ry="2" />
<text  x="1126.11" y="127.5" ></text>
</g>
<g >
<title>compute_selectors_list (run_benchmark.py:362) (62 samples, 0.71%)</title><rect x="13.2" y="101" width="8.4" height="15.0" fill="rgb(109,219,219)" rx="2" ry="2" />
<text  x="16.25" y="111.5" ></text>
</g>
<g >
<title>__init__ (run_benchmark.py:140) (2 samples, 0.02%)</title><rect x="25.3" y="53" width="0.3" height="15.0" fill="rgb(92,204,204)" rx="2" ry="2" />
<text  x="28.30" y="63.5" ></text>
</g>
<g >
<title>find_next_symbol (run_benchmark.py:234) (14 samples, 0.16%)</title><rect x="581.5" y="101" width="1.9" height="15.0" fill="rgb(104,215,215)" rx="2" ry="2" />
<text  x="584.52" y="111.5" ></text>
</g>
<g >
<title>readbits (run_benchmark.py:121) (6 samples, 0.07%)</title><rect x="18.3" y="85" width="0.8" height="15.0" fill="rgb(107,217,217)" rx="2" ry="2" />
<text  x="21.26" y="95.5" ></text>
</g>
<g >
<title>readbits (run_benchmark.py:120) (16 samples, 0.18%)</title><rect x="16.1" y="85" width="2.2" height="15.0" fill="rgb(55,170,170)" rx="2" ry="2" />
<text  x="19.09" y="95.5" ></text>
</g>
<g >
<title>readbits (run_benchmark.py:122) (394 samples, 4.52%)</title><rect x="516.1" y="85" width="53.4" height="15.0" fill="rgb(100,210,210)" rx="2" ry="2" />
<text  x="519.12" y="95.5" >readb..</text>
</g>
<g >
<title>_more (run_benchmark.py:107) (182 samples, 2.09%)</title><rect x="205.1" y="53" width="24.7" height="15.0" fill="rgb(66,179,179)" rx="2" ry="2" />
<text  x="208.11" y="63.5" >_..</text>
</g>
<g >
<title>readbits (run_benchmark.py:121) (112 samples, 1.29%)</title><rect x="501.0" y="85" width="15.1" height="15.0" fill="rgb(107,217,217)" rx="2" ry="2" />
<text  x="503.96" y="95.5" ></text>
</g>
<g >
<title>find_next_symbol (run_benchmark.py:228) (303 samples, 3.48%)</title><rect x="84.1" y="101" width="41.0" height="15.0" fill="rgb(81,193,193)" rx="2" ry="2" />
<text  x="87.06" y="111.5" >fin..</text>
</g>
<g >
<title>decode_huffman_block (run_benchmark.py:436) (48 samples, 0.55%)</title><rect x="611.4" y="117" width="6.5" height="15.0" fill="rgb(60,174,174)" rx="2" ry="2" />
<text  x="614.44" y="127.5" ></text>
</g>
<g >
<title>_mask (run_benchmark.py:55) (4 samples, 0.05%)</title><rect x="23.9" y="69" width="0.6" height="15.0" fill="rgb(57,171,171)" rx="2" ry="2" />
<text  x="26.95" y="79.5" ></text>
</g>
<g >
<title>readbits (run_benchmark.py:122) (2 samples, 0.02%)</title><rect x="24.9" y="85" width="0.3" height="15.0" fill="rgb(100,210,210)" rx="2" ry="2" />
<text  x="27.89" y="95.5" ></text>
</g>
<g >
<title>decode_huffman_block (run_benchmark.py:449) (193 samples, 2.21%)</title><rect x="1001.1" y="117" width="26.2" height="15.0" fill="rgb(89,201,201)" rx="2" ry="2" />
<text  x="1004.12" y="127.5" >d..</text>
</g>
<g >
<title>needbits (run_benchmark.py:52) (4 samples, 0.05%)</title><rect x="15.6" y="69" width="0.5" height="15.0" fill="rgb(96,207,207)" rx="2" ry="2" />
<text  x="18.55" y="79.5" ></text>
</g>
<g >
<title>_more (run_benchmark.py:110) (43 samples, 0.49%)</title><rect x="243.0" y="53" width="5.8" height="15.0" fill="rgb(52,167,167)" rx="2" ry="2" />
<text  x="246.02" y="63.5" ></text>
</g>
<g >
<title>bwt_transform (run_benchmark.py:297) (10 samples, 0.11%)</title><rect x="876.3" y="85" width="1.3" height="15.0" fill="rgb(80,193,193)" rx="2" ry="2" />
<text  x="879.28" y="95.5" ></text>
</g>
<g >
<title>bwt_reverse (run_benchmark.py:331) (210 samples, 2.41%)</title><rect x="972.1" y="101" width="28.5" height="15.0" fill="rgb(102,212,212)" rx="2" ry="2" />
<text  x="975.14" y="111.5" >bw..</text>
</g>
<g >
<title>find_next_symbol (run_benchmark.py:232) (1,029 samples, 11.81%)</title><rect x="430.8" y="101" width="139.3" height="15.0" fill="rgb(60,174,174)" rx="2" ry="2" />
<text  x="433.82" y="111.5" >find_next_symbol ..</text>
</g>
<g >
<title>decode_huffman_block (run_benchmark.py:407) (43 samples, 0.49%)</title><rect x="23.4" y="117" width="5.8" height="15.0" fill="rgb(76,189,189)" rx="2" ry="2" />
<text  x="26.40" y="127.5" ></text>
</g>
<g >
<title>reverse_bits (run_benchmark.py:159) (3 samples, 0.03%)</title><rect x="28.0" y="69" width="0.4" height="15.0" fill="rgb(97,208,208)" rx="2" ry="2" />
<text  x="31.01" y="79.5" ></text>
</g>
<g >
<title>_read (run_benchmark.py:45) (4 samples, 0.05%)</title><rect x="220.0" y="37" width="0.5" height="15.0" fill="rgb(68,182,182)" rx="2" ry="2" />
<text  x="223.00" y="47.5" ></text>
</g>
<g >
<title>find_next_symbol (run_benchmark.py:233) (84 samples, 0.96%)</title><rect x="570.1" y="101" width="11.4" height="15.0" fill="rgb(52,167,167)" rx="2" ry="2" />
<text  x="573.14" y="111.5" ></text>
</g>
<g >
<title>find_next_symbol (run_benchmark.py:226) (9 samples, 0.10%)</title><rect x="59.4" y="101" width="1.2" height="15.0" fill="rgb(97,208,208)" rx="2" ry="2" />
<text  x="62.42" y="111.5" ></text>
</g>
<g >
<title>decode_huffman_block (run_benchmark.py:419) (43 samples, 0.49%)</title><rect x="33.8" y="117" width="5.9" height="15.0" fill="rgb(52,167,167)" rx="2" ry="2" />
<text  x="36.83" y="127.5" ></text>
</g>
<g >
<title>bwt_reverse (run_benchmark.py:329) (75 samples, 0.86%)</title><rect x="938.4" y="101" width="10.2" height="15.0" fill="rgb(108,218,218)" rx="2" ry="2" />
<text  x="941.43" y="111.5" ></text>
</g>
<g >
<title>_more (run_benchmark.py:109) (62 samples, 0.71%)</title><rect x="234.6" y="53" width="8.4" height="15.0" fill="rgb(50,165,165)" rx="2" ry="2" />
<text  x="237.63" y="63.5" ></text>
</g>
<g >
<title>decode_huffman_block (run_benchmark.py:421) (1 samples, 0.01%)</title><rect x="40.1" y="117" width="0.1" height="15.0" fill="rgb(107,217,217)" rx="2" ry="2" />
<text  x="43.06" y="127.5" ></text>
</g>
<g >
<title>bwt_reverse (run_benchmark.py:309) (668 samples, 7.66%)</title><rect x="848.0" y="101" width="90.4" height="15.0" fill="rgb(63,177,177)" rx="2" ry="2" />
<text  x="850.98" y="111.5" >bwt_revers..</text>
</g>
<g >
<title>decode_huffman_block (run_benchmark.py:431) (4 samples, 0.05%)</title><rect x="606.7" y="117" width="0.5" height="15.0" fill="rgb(99,210,210)" rx="2" ry="2" />
<text  x="609.70" y="127.5" ></text>
</g>
<g >
<title>readbits (run_benchmark.py:120) (2 samples, 0.02%)</title><rect x="23.7" y="85" width="0.2" height="15.0" fill="rgb(55,170,170)" rx="2" ry="2" />
<text  x="26.68" y="95.5" ></text>
</g>
<g >
<title>find_next_symbol (run_benchmark.py:229) (1,848 samples, 21.20%)</title><rect x="125.1" y="101" width="250.2" height="15.0" fill="rgb(73,186,186)" rx="2" ry="2" />
<text  x="128.09" y="111.5" >find_next_symbol (run_benchmark.p..</text>
</g>
<g >
<title>decode_huffman_block (run_benchmark.py:438) (53 samples, 0.61%)</title><rect x="618.3" y="117" width="7.2" height="15.0" fill="rgb(105,215,215)" rx="2" ry="2" />
<text  x="621.35" y="127.5" ></text>
</g>
<g >
<title>needbits (run_benchmark.py:52) (3 samples, 0.03%)</title><rect x="10.5" y="101" width="0.4" height="15.0" fill="rgb(96,207,207)" rx="2" ry="2" />
<text  x="13.54" y="111.5" ></text>
</g>
<g >
<title>decode_huffman_block (run_benchmark.py:429) (42 samples, 0.48%)</title><rect x="598.4" y="117" width="5.7" height="15.0" fill="rgb(105,215,215)" rx="2" ry="2" />
<text  x="601.44" y="127.5" ></text>
</g>
<g >
<title>find_next_symbol (run_benchmark.py:227) (173 samples, 1.99%)</title><rect x="60.6" y="101" width="23.5" height="15.0" fill="rgb(89,201,201)" rx="2" ry="2" />
<text  x="63.64" y="111.5" >f..</text>
</g>
<g >
<title>decode_huffman_block (run_benchmark.py:450) (708 samples, 8.12%)</title><rect x="1027.3" y="117" width="95.8" height="15.0" fill="rgb(91,203,203)" rx="2" ry="2" />
<text  x="1030.25" y="127.5" >decode_huff..</text>
</g>
<g >
<title>readbits (run_benchmark.py:120) (4 samples, 0.05%)</title><rect x="23.9" y="85" width="0.6" height="15.0" fill="rgb(55,170,170)" rx="2" ry="2" />
<text  x="26.95" y="95.5" ></text>
</g>
<g >
<title>move_to_front (run_benchmark.py:289) (1,364 samples, 15.65%)</title><rect x="644.9" y="101" width="184.7" height="15.0" fill="rgb(67,180,180)" rx="2" ry="2" />
<text  x="647.88" y="111.5" >move_to_front (run_bench..</text>
</g>
<g >
<title>decode_huffman_block (run_benchmark.py:418) (31 samples, 0.36%)</title><rect x="29.6" y="117" width="4.2" height="15.0" fill="rgb(60,174,174)" rx="2" ry="2" />
<text  x="32.63" y="127.5" ></text>
</g>
<g >
<title>compute_selectors_list (run_benchmark.py:364) (3 samples, 0.03%)</title><rect x="21.6" y="101" width="0.5" height="15.0" fill="rgb(94,205,205)" rx="2" ry="2" />
<text  x="24.64" y="111.5" ></text>
</g>
<g >
<title>bwt_reverse (run_benchmark.py:333) (4 samples, 0.05%)</title><rect x="1000.6" y="101" width="0.5" height="15.0" fill="rgb(86,198,198)" rx="2" ry="2" />
<text  x="1003.58" y="111.5" ></text>
</g>
<g >
<title>_more (run_benchmark.py:107) (1 samples, 0.01%)</title><rect x="15.8" y="53" width="0.2" height="15.0" fill="rgb(66,179,179)" rx="2" ry="2" />
<text  x="18.82" y="63.5" ></text>
</g>
<g >
<title>bwt_transform (run_benchmark.py:294) (209 samples, 2.40%)</title><rect x="848.0" y="85" width="28.3" height="15.0" fill="rgb(103,214,214)" rx="2" ry="2" />
<text  x="850.98" y="95.5" >b..</text>
</g>
<g >
<title>decode_huffman_block (run_benchmark.py:452) (3 samples, 0.03%)</title><rect x="1126.1" y="117" width="0.4" height="15.0" fill="rgb(76,189,189)" rx="2" ry="2" />
<text  x="1129.09" y="127.5" ></text>
</g>
<g >
<title>decode_huffman_block (run_benchmark.py:426) (85 samples, 0.98%)</title><rect x="583.4" y="117" width="11.5" height="15.0" fill="rgb(68,181,181)" rx="2" ry="2" />
<text  x="586.41" y="127.5" ></text>
</g>
<g >
<title>snoopbits (run_benchmark.py:115) (934 samples, 10.72%)</title><rect x="248.8" y="85" width="126.5" height="15.0" fill="rgb(84,197,197)" rx="2" ry="2" />
<text  x="251.84" y="95.5" >snoopbits (run_..</text>
</g>
<g >
<title>compute_tables (run_benchmark.py:387) (6 samples, 0.07%)</title><rect x="25.3" y="101" width="0.8" height="15.0" fill="rgb(68,181,181)" rx="2" ry="2" />
<text  x="28.30" y="111.5" ></text>
</g>
<g >
<title>bench_pyflake (run_benchmark.py:645) (8,715 samples, 100.00%)</title><rect x="10.0" y="149" width="1180.0" height="15.0" fill="rgb(96,207,207)" rx="2" ry="2" />
<text  x="13.00" y="159.5" >bench_pyflake (run_benchmark.py:645)</text>
</g>
<g >
<title>reverse_bits (run_benchmark.py:161) (4 samples, 0.05%)</title><rect x="28.4" y="69" width="0.6" height="15.0" fill="rgb(91,203,203)" rx="2" ry="2" />
<text  x="31.41" y="79.5" ></text>
</g>
<g >
<title>needbits (run_benchmark.py:51) (79 samples, 0.91%)</title><rect x="190.2" y="69" width="10.7" height="15.0" fill="rgb(104,214,214)" rx="2" ry="2" />
<text  x="193.22" y="79.5" ></text>
</g>
<g >
<title>_more (run_benchmark.py:108) (36 samples, 0.41%)</title><rect x="229.8" y="53" width="4.8" height="15.0" fill="rgb(58,172,172)" rx="2" ry="2" />
<text  x="232.75" y="63.5" ></text>
</g>
<g >
<title>decode_huffman_block (run_benchmark.py:437) (3 samples, 0.03%)</title><rect x="617.9" y="117" width="0.4" height="15.0" fill="rgb(52,167,167)" rx="2" ry="2" />
<text  x="620.94" y="127.5" ></text>
</g>
<g >
<title>decode_huffman_block (run_benchmark.py:446) (1,206 samples, 13.84%)</title><rect x="837.8" y="117" width="163.3" height="15.0" fill="rgb(52,167,167)" rx="2" ry="2" />
<text  x="840.83" y="127.5" >decode_huffman_block ..</text>
</g>
<g >
<title>bzip2_main (run_benchmark.py:479) (8,633 samples, 99.06%)</title><rect x="10.9" y="133" width="1168.9" height="15.0" fill="rgb(86,198,198)" rx="2" ry="2" />
<text  x="13.95" y="143.5" >bzip2_main (run_benchmark.py:479)</text>
</g>
<g >
<title>decode_huffman_block (run_benchmark.py:417) (3 samples, 0.03%)</title><rect x="29.2" y="117" width="0.4" height="15.0" fill="rgb(68,181,181)" rx="2" ry="2" />
<text  x="32.23" y="127.5" ></text>
</g>
<g >
<title>_mask (run_benchmark.py:55) (4 samples, 0.05%)</title><rect x="21.1" y="69" width="0.5" height="15.0" fill="rgb(57,171,171)" rx="2" ry="2" />
<text  x="24.10" y="79.5" ></text>
</g>
<g >
<title>bwt_reverse (run_benchmark.py:330) (174 samples, 2.00%)</title><rect x="948.6" y="101" width="23.5" height="15.0" fill="rgb(50,165,165)" rx="2" ry="2" />
<text  x="951.58" y="111.5" >b..</text>
</g>
<g >
<title>readbits (run_benchmark.py:121) (3 samples, 0.03%)</title><rect x="24.5" y="85" width="0.4" height="15.0" fill="rgb(107,217,217)" rx="2" ry="2" />
<text  x="27.49" y="95.5" ></text>
</g>
<g >
<title>bwt_transform (run_benchmark.py:302) (237 samples, 2.72%)</title><rect x="906.3" y="85" width="32.1" height="15.0" fill="rgb(61,175,175)" rx="2" ry="2" />
<text  x="909.34" y="95.5" >bw..</text>
</g>
<g >
<title>min_max_bits (run_benchmark.py:213) (2 samples, 0.02%)</title><rect x="29.0" y="85" width="0.2" height="15.0" fill="rgb(74,187,187)" rx="2" ry="2" />
<text  x="31.96" y="95.5" ></text>
</g>
<g >
<title>readbits (run_benchmark.py:119) (4 samples, 0.05%)</title><rect x="15.6" y="85" width="0.5" height="15.0" fill="rgb(53,168,168)" rx="2" ry="2" />
<text  x="18.55" y="95.5" ></text>
</g>
<g >
<title>compute_selectors_list (run_benchmark.py:367) (10 samples, 0.11%)</title><rect x="22.1" y="101" width="1.3" height="15.0" fill="rgb(71,184,184)" rx="2" ry="2" />
<text  x="25.05" y="111.5" ></text>
</g>
<g >
<title>compute_tables (run_benchmark.py:381) (9 samples, 0.10%)</title><rect x="23.9" y="101" width="1.3" height="15.0" fill="rgb(54,169,169)" rx="2" ry="2" />
<text  x="26.95" y="111.5" ></text>
</g>
<g >
<title>decode_huffman_block (run_benchmark.py:427) (22 samples, 0.25%)</title><rect x="594.9" y="117" width="3.0" height="15.0" fill="rgb(60,174,174)" rx="2" ry="2" />
<text  x="597.92" y="127.5" ></text>
</g>
<g >
<title>_mask (run_benchmark.py:55) (104 samples, 1.19%)</title><rect x="486.9" y="69" width="14.1" height="15.0" fill="rgb(57,171,171)" rx="2" ry="2" />
<text  x="489.87" y="79.5" ></text>
</g>
<g >
<title>_read (run_benchmark.py:45) (1 samples, 0.01%)</title><rect x="15.8" y="37" width="0.2" height="15.0" fill="rgb(68,182,182)" rx="2" ry="2" />
<text  x="18.82" y="47.5" ></text>
</g>
<g >
<title>readbits (run_benchmark.py:120) (337 samples, 3.87%)</title><rect x="455.3" y="85" width="45.7" height="15.0" fill="rgb(55,170,170)" rx="2" ry="2" />
<text  x="458.33" y="95.5" >read..</text>
</g>
<g >
<title>snoopbits (run_benchmark.py:113) (162 samples, 1.86%)</title><rect x="160.7" y="85" width="21.9" height="15.0" fill="rgb(100,211,211)" rx="2" ry="2" />
<text  x="163.70" y="95.5" >s..</text>
</g>
<g >
<title>bwt_transform (run_benchmark.py:300) (97 samples, 1.11%)</title><rect x="877.6" y="85" width="13.2" height="15.0" fill="rgb(76,189,189)" rx="2" ry="2" />
<text  x="880.64" y="95.5" ></text>
</g>
<g >
<title>readbits (run_benchmark.py:118) (5 samples, 0.06%)</title><rect x="14.9" y="85" width="0.7" height="15.0" fill="rgb(61,175,175)" rx="2" ry="2" />
<text  x="17.87" y="95.5" ></text>
</g>
<g >
<title>needbits (run_benchmark.py:52) (354 samples, 4.06%)</title><rect x="200.9" y="69" width="47.9" height="15.0" fill="rgb(96,207,207)" rx="2" ry="2" />
<text  x="203.91" y="79.5" >need..</text>
</g>
<g >
<title>decode_huffman_block (run_benchmark.py:455) (69 samples, 0.79%)</title><rect x="1170.5" y="117" width="9.3" height="15.0" fill="rgb(52,167,167)" rx="2" ry="2" />
<text  x="1173.50" y="127.5" ></text>
</g>
<g >
<title>decode_huffman_block (run_benchmark.py:432) (31 samples, 0.36%)</title><rect x="607.2" y="117" width="4.2" height="15.0" fill="rgb(91,203,203)" rx="2" ry="2" />
<text  x="610.24" y="127.5" ></text>
</g>
<g >
<title>bwt_transform (run_benchmark.py:301) (115 samples, 1.32%)</title><rect x="890.8" y="85" width="15.5" height="15.0" fill="rgb(69,182,182)" rx="2" ry="2" />
<text  x="893.77" y="95.5" ></text>
</g>
<g >
<title>_read (run_benchmark.py:44) (46 samples, 0.53%)</title><rect x="213.8" y="37" width="6.2" height="15.0" fill="rgb(76,189,189)" rx="2" ry="2" />
<text  x="216.78" y="47.5" ></text>
</g>
<g >
<title>_read (run_benchmark.py:47) (67 samples, 0.77%)</title><rect x="220.5" y="37" width="9.1" height="15.0" fill="rgb(53,168,168)" rx="2" ry="2" />
<text  x="223.55" y="47.5" ></text>
</g>
<g >
<title>_mask (run_benchmark.py:55) (72 samples, 0.83%)</title><rect x="559.7" y="69" width="9.8" height="15.0" fill="rgb(57,171,171)" rx="2" ry="2" />
<text  x="562.72" y="79.5" ></text>
</g>
<g >
<title>compute_tables (run_benchmark.py:380) (4 samples, 0.05%)</title><rect x="23.4" y="101" width="0.5" height="15.0" fill="rgb(62,176,176)" rx="2" ry="2" />
<text  x="26.40" y="111.5" ></text>
</g>
</g>
</svg>
